<svg xmlns="http://www.w3.org/2000/svg" viewBox="0 0 600 475" style="pointer-events:all;width:100%;height:100%"><g><text direction="inherit" x="55" dx="0" y="420" dy="-16.679999999999996"><tspan x="55" dx="0" text-anchor="start" style="font-size:24px;fill:#d73027;font-family:&#x27;Gill Sans&#x27;, &#x27;Gill Sans MT&#x27;, &#x27;Ser­avek&#x27;, &#x27;Trebuchet MS&#x27;, sans-serif;stroke:transparent">■</tspan><tspan x="55" dx="0" dy="16.799999999999997" text-anchor="start" style="font-size:24px;fill:#4575b4;font-family:&#x27;Gill Sans&#x27;, &#x27;Gill Sans MT&#x27;, &#x27;Ser­avek&#x27;, &#x27;Trebuchet MS&#x27;, sans-serif;stroke:transparent">■</tspan><tspan x="55" dx="0" dy="16.799999999999997" text-anchor="start" style="font-size:24px;fill:#fc8d59;font-family:&#x27;Gill Sans&#x27;, &#x27;Gill Sans MT&#x27;, &#x27;Ser­avek&#x27;, &#x27;Trebuchet MS&#x27;, sans-serif;stroke:transparent">■</tspan><tspan x="55" dx="0" dy="16.799999999999997" text-anchor="start" style="font-size:24px;fill:#91bfdb;font-family:&#x27;Gill Sans&#x27;, &#x27;Gill Sans MT&#x27;, &#x27;Ser­avek&#x27;, &#x27;Trebuchet MS&#x27;, sans-serif;stroke:transparent">■</tspan></text><text direction="inherit" x="80" dx="0" y="420" dy="-20.939999999999998"><tspan x="80" dx="0" text-anchor="start" style="fill:black;font-size:12px;font-family:&#x27;Open Sans&#x27;, &#x27;Helvetica Neue&#x27;, Helvetica, sans-serif;parent:[object Object];stroke:transparent">W3C Recommendation – HTML 5.2</tspan><tspan x="80" dx="0" dy="16.799999999999997" text-anchor="start" style="fill:black;font-size:12px;font-family:&#x27;Open Sans&#x27;, &#x27;Helvetica Neue&#x27;, Helvetica, sans-serif;parent:[object Object];stroke:transparent">Bootstrap 5.1</tspan><tspan x="80" dx="0" dy="16.799999999999997" text-anchor="start" style="fill:black;font-size:12px;font-family:&#x27;Open Sans&#x27;, &#x27;Helvetica Neue&#x27;, Helvetica, sans-serif;parent:[object Object];stroke:transparent">Foundation 6.7.5 – Desktop</tspan><tspan x="80" dx="0" dy="16.799999999999997" text-anchor="start" style="fill:black;font-size:12px;font-family:&#x27;Open Sans&#x27;, &#x27;Helvetica Neue&#x27;, Helvetica, sans-serif;parent:[object Object];stroke:transparent">Foundation 6.7.5 – Mobile</tspan></text><g role="presentation"><line x1="50" x2="520" y1="350" y2="350" style="stroke:#000000;fill:transparent;stroke-width:1;stroke-linecap:butt;stroke-linejoin:round" role="presentation" shape-rendering="auto" vector-effect="non-scaling-stroke"></line><g role="presentation"><line x1="79.57261574990105" x2="79.57261574990105" y1="350" y2="50" style="stroke:transparent;fill:none;stroke-width:1;stroke-linecap:round;stroke-linejoin:round;pointer-events:visible" role="presentation" shape-rendering="auto" vector-effect="non-scaling-stroke"></line><line x1="79.57261574990105" x2="79.57261574990105" y1="350" y2="355" style="stroke:#000000;fill:transparent;size:5px;stroke-width:1;stroke-linecap:butt;stroke-linejoin:round" role="presentation" shape-rendering="auto" vector-effect="non-scaling-stroke"></line><text direction="inherit" x="79.57261574990105" dx="0" y="363" dy="10.26"><tspan x="79.57261574990105" dx="0" text-anchor="start" style="text-anchor:start;font-family:&#x27;Open Sans&#x27;, &#x27;Helvetica Neue&#x27;, Helvetica, sans-serif;font-size:12px;letter-spacing:normal;padding:8px;fill:#000000;stroke:transparent;stroke-width:0">H6</tspan></text></g><g role="presentation"><line x1="161.74356944994065" x2="161.74356944994065" y1="350" y2="50" style="stroke:transparent;fill:none;stroke-width:1;stroke-linecap:round;stroke-linejoin:round;pointer-events:visible" role="presentation" shape-rendering="auto" vector-effect="non-scaling-stroke"></line><line x1="161.74356944994065" x2="161.74356944994065" y1="350" y2="355" style="stroke:#000000;fill:transparent;size:5px;stroke-width:1;stroke-linecap:butt;stroke-linejoin:round" role="presentation" shape-rendering="auto" vector-effect="non-scaling-stroke"></line><text direction="inherit" x="161.74356944994065" dx="0" y="363" dy="10.26"><tspan x="161.74356944994065" dx="0" text-anchor="start" style="text-anchor:start;font-family:&#x27;Open Sans&#x27;, &#x27;Helvetica Neue&#x27;, Helvetica, sans-serif;font-size:12px;letter-spacing:normal;padding:8px;fill:#000000;stroke:transparent;stroke-width:0">H5</tspan></text></g><g role="presentation"><line x1="243.91452314998023" x2="243.91452314998023" y1="350" y2="50" style="stroke:transparent;fill:none;stroke-width:1;stroke-linecap:round;stroke-linejoin:round;pointer-events:visible" role="presentation" shape-rendering="auto" vector-effect="non-scaling-stroke"></line><line x1="243.91452314998023" x2="243.91452314998023" y1="350" y2="355" style="stroke:#000000;fill:transparent;size:5px;stroke-width:1;stroke-linecap:butt;stroke-linejoin:round" role="presentation" shape-rendering="auto" vector-effect="non-scaling-stroke"></line><text direction="inherit" x="243.91452314998023" dx="0" y="363" dy="10.26"><tspan x="243.91452314998023" dx="0" text-anchor="start" style="text-anchor:start;font-family:&#x27;Open Sans&#x27;, &#x27;Helvetica Neue&#x27;, Helvetica, sans-serif;font-size:12px;letter-spacing:normal;padding:8px;fill:#000000;stroke:transparent;stroke-width:0">H4</tspan></text></g><g role="presentation"><line x1="326.08547685001975" x2="326.08547685001975" y1="350" y2="50" style="stroke:transparent;fill:none;stroke-width:1;stroke-linecap:round;stroke-linejoin:round;pointer-events:visible" role="presentation" shape-rendering="auto" vector-effect="non-scaling-stroke"></line><line x1="326.08547685001975" x2="326.08547685001975" y1="350" y2="355" style="stroke:#000000;fill:transparent;size:5px;stroke-width:1;stroke-linecap:butt;stroke-linejoin:round" role="presentation" shape-rendering="auto" vector-effect="non-scaling-stroke"></line><text direction="inherit" x="326.08547685001975" dx="0" y="363" dy="10.26"><tspan x="326.08547685001975" dx="0" text-anchor="start" style="text-anchor:start;font-family:&#x27;Open Sans&#x27;, &#x27;Helvetica Neue&#x27;, Helvetica, sans-serif;font-size:12px;letter-spacing:normal;padding:8px;fill:#000000;stroke:transparent;stroke-width:0">H3</tspan></text></g><g role="presentation"><line x1="408.25643055005935" x2="408.25643055005935" y1="350" y2="50" style="stroke:transparent;fill:none;stroke-width:1;stroke-linecap:round;stroke-linejoin:round;pointer-events:visible" role="presentation" shape-rendering="auto" vector-effect="non-scaling-stroke"></line><line x1="408.25643055005935" x2="408.25643055005935" y1="350" y2="355" style="stroke:#000000;fill:transparent;size:5px;stroke-width:1;stroke-linecap:butt;stroke-linejoin:round" role="presentation" shape-rendering="auto" vector-effect="non-scaling-stroke"></line><text direction="inherit" x="408.25643055005935" dx="0" y="363" dy="10.26"><tspan x="408.25643055005935" dx="0" text-anchor="start" style="text-anchor:start;font-family:&#x27;Open Sans&#x27;, &#x27;Helvetica Neue&#x27;, Helvetica, sans-serif;font-size:12px;letter-spacing:normal;padding:8px;fill:#000000;stroke:transparent;stroke-width:0">H2</tspan></text></g><g role="presentation"><line x1="490.4273842500989" x2="490.4273842500989" y1="350" y2="50" style="stroke:transparent;fill:none;stroke-width:1;stroke-linecap:round;stroke-linejoin:round;pointer-events:visible" role="presentation" shape-rendering="auto" vector-effect="non-scaling-stroke"></line><line x1="490.4273842500989" x2="490.4273842500989" y1="350" y2="355" style="stroke:#000000;fill:transparent;size:5px;stroke-width:1;stroke-linecap:butt;stroke-linejoin:round" role="presentation" shape-rendering="auto" vector-effect="non-scaling-stroke"></line><text direction="inherit" x="490.4273842500989" dx="0" y="363" dy="10.26"><tspan x="490.4273842500989" dx="0" text-anchor="start" style="text-anchor:start;font-family:&#x27;Open Sans&#x27;, &#x27;Helvetica Neue&#x27;, Helvetica, sans-serif;font-size:12px;letter-spacing:normal;padding:8px;fill:#000000;stroke:transparent;stroke-width:0">H1</tspan></text></g></g><g role="presentation"><line x1="50" x2="50" y1="50" y2="350" style="stroke:transparent;fill:transparent;stroke-width:1;stroke-linecap:butt;stroke-linejoin:round" role="presentation" shape-rendering="auto" vector-effect="non-scaling-stroke"></line><g role="presentation"><line x1="50" x2="520" y1="350" y2="350" style="stroke:#000000;stroke-dasharray:0, 6;pointer-events:visible;fill:none;stroke-width:1;stroke-linecap:round;stroke-linejoin:round" role="presentation" shape-rendering="auto" vector-effect="non-scaling-stroke"></line><line x1="50" x2="50" y1="350" y2="350" style="stroke:#000000;size:0;stroke-linecap:round;stroke-linejoin:round;fill:transparent;stroke-width:1" role="presentation" shape-rendering="auto" vector-effect="non-scaling-stroke"></line><text direction="inherit" x="42" dx="0" y="350" dy="4.26"><tspan x="42" dx="0" text-anchor="end" style="text-anchor:end;font-family:&#x27;Open Sans&#x27;, &#x27;Helvetica Neue&#x27;, Helvetica, sans-serif;font-size:12px;letter-spacing:normal;padding:8px;fill:#000000;stroke:transparent;stroke-width:0">80%</tspan></text></g><g role="presentation"><line x1="50" x2="520" y1="264.2857142857143" y2="264.2857142857143" style="stroke:#000000;stroke-dasharray:0, 6;pointer-events:visible;fill:none;stroke-width:1;stroke-linecap:round;stroke-linejoin:round" role="presentation" shape-rendering="auto" vector-effect="non-scaling-stroke"></line><line x1="50" x2="50" y1="264.2857142857143" y2="264.2857142857143" style="stroke:#000000;size:0;stroke-linecap:round;stroke-linejoin:round;fill:transparent;stroke-width:1" role="presentation" shape-rendering="auto" vector-effect="non-scaling-stroke"></line><text direction="inherit" x="42" dx="0" y="264.2857142857143" dy="4.26"><tspan x="42" dx="0" text-anchor="end" style="text-anchor:end;font-family:&#x27;Open Sans&#x27;, &#x27;Helvetica Neue&#x27;, Helvetica, sans-serif;font-size:12px;letter-spacing:normal;padding:8px;fill:#000000;stroke:transparent;stroke-width:0">100%</tspan></text></g><g role="presentation"><line x1="50" x2="520" y1="178.57142857142856" y2="178.57142857142856" style="stroke:#000000;stroke-dasharray:0, 6;pointer-events:visible;fill:none;stroke-width:1;stroke-linecap:round;stroke-linejoin:round" role="presentation" shape-rendering="auto" vector-effect="non-scaling-stroke"></line><line x1="50" x2="50" y1="178.57142857142856" y2="178.57142857142856" style="stroke:#000000;size:0;stroke-linecap:round;stroke-linejoin:round;fill:transparent;stroke-width:1" role="presentation" shape-rendering="auto" vector-effect="non-scaling-stroke"></line><text direction="inherit" x="42" dx="0" y="178.57142857142856" dy="4.26"><tspan x="42" dx="0" text-anchor="end" style="text-anchor:end;font-family:&#x27;Open Sans&#x27;, &#x27;Helvetica Neue&#x27;, Helvetica, sans-serif;font-size:12px;letter-spacing:normal;padding:8px;fill:#000000;stroke:transparent;stroke-width:0">120%</tspan></text></g><g role="presentation"><line x1="50" x2="520" y1="135.71428571428572" y2="135.71428571428572" style="stroke:#000000;stroke-dasharray:0, 6;pointer-events:visible;fill:none;stroke-width:1;stroke-linecap:round;stroke-linejoin:round" role="presentation" shape-rendering="auto" vector-effect="non-scaling-stroke"></line><line x1="50" x2="50" y1="135.71428571428572" y2="135.71428571428572" style="stroke:#000000;size:0;stroke-linecap:round;stroke-linejoin:round;fill:transparent;stroke-width:1" role="presentation" shape-rendering="auto" vector-effect="non-scaling-stroke"></line><text direction="inherit" x="42" dx="0" y="135.71428571428572" dy="4.26"><tspan x="42" dx="0" text-anchor="end" style="text-anchor:end;font-family:&#x27;Open Sans&#x27;, &#x27;Helvetica Neue&#x27;, Helvetica, sans-serif;font-size:12px;letter-spacing:normal;padding:8px;fill:#000000;stroke:transparent;stroke-width:0">130%</tspan></text></g><g role="presentation"><line x1="50" x2="520" y1="92.8571428571429" y2="92.8571428571429" style="stroke:#000000;stroke-dasharray:0, 6;pointer-events:visible;fill:none;stroke-width:1;stroke-linecap:round;stroke-linejoin:round" role="presentation" shape-rendering="auto" vector-effect="non-scaling-stroke"></line><line x1="50" x2="50" y1="92.8571428571429" y2="92.8571428571429" style="stroke:#000000;size:0;stroke-linecap:round;stroke-linejoin:round;fill:transparent;stroke-width:1" role="presentation" shape-rendering="auto" vector-effect="non-scaling-stroke"></line><text direction="inherit" x="42" dx="0" y="92.8571428571429" dy="4.26"><tspan x="42" dx="0" text-anchor="end" style="text-anchor:end;font-family:&#x27;Open Sans&#x27;, &#x27;Helvetica Neue&#x27;, Helvetica, sans-serif;font-size:12px;letter-spacing:normal;padding:8px;fill:#000000;stroke:transparent;stroke-width:0">140%</tspan></text></g><g role="presentation"><line x1="50" x2="520" y1="50" y2="50" style="stroke:#000000;stroke-dasharray:0, 6;pointer-events:visible;fill:none;stroke-width:1;stroke-linecap:round;stroke-linejoin:round" role="presentation" shape-rendering="auto" vector-effect="non-scaling-stroke"></line><line x1="50" x2="50" y1="50" y2="50" style="stroke:#000000;size:0;stroke-linecap:round;stroke-linejoin:round;fill:transparent;stroke-width:1" role="presentation" shape-rendering="auto" vector-effect="non-scaling-stroke"></line><text direction="inherit" x="42" dx="0" y="50" dy="4.26"><tspan x="42" dx="0" text-anchor="end" style="text-anchor:end;font-family:&#x27;Open Sans&#x27;, &#x27;Helvetica Neue&#x27;, Helvetica, sans-serif;font-size:12px;letter-spacing:normal;padding:8px;fill:#000000;stroke:transparent;stroke-width:0">150%</tspan></text></g></g><g><g role="presentation"><path d="M 91.5726157499011, 350 
A 0 0 0 0 0, 91.5726157499011, 350 
L 91.5726157499011, 350 
A 0 0 0 0 0, 91.5726157499011, 350 
L 97.5726157499011, 350 
A 0 0 0 0 0, 97.5726157499011, 350 
L 97.5726157499011, 350 
A 0 0 0 0 0, 97.5726157499011, 350 
 z" style="fill:#d73027;stroke:#d73027;width:6px;padding:8px;stroke-width:0" role="presentation" shape-rendering="auto"></path><path d="M 173.74356944994068, 350 
A 0 0 0 0 1, 173.74356944994068, 350 
L 173.74356944994068, 161.94029850746276 
A 0 0 0 0 1, 173.74356944994068, 161.94029850746276 
L 179.74356944994068, 161.94029850746276 
A 0 0 0 0 1, 179.74356944994068, 161.94029850746276 
L 179.74356944994068, 350 
A 0 0 0 0 1, 179.74356944994068, 350 
 z" style="fill:#d73027;stroke:#d73027;width:6px;padding:8px;stroke-width:0" role="presentation" shape-rendering="auto"></path><path d="M 255.91452314998025, 350 
A 0 0 0 0 1, 255.91452314998025, 350 
L 255.91452314998025, 176.50602409638554 
A 0 0 0 0 1, 255.91452314998025, 176.50602409638554 
L 261.91452314998025, 176.50602409638554 
A 0 0 0 0 1, 261.91452314998025, 176.50602409638554 
L 261.91452314998025, 350 
A 0 0 0 0 1, 261.91452314998025, 350 
 z" style="fill:#d73027;stroke:#d73027;width:6px;padding:8px;stroke-width:0" role="presentation" shape-rendering="auto"></path><path d="M 338.0854768500198, 350 
A 0 0 0 0 1, 338.0854768500198, 350 
L 338.0854768500198, 191.42857142857144 
A 0 0 0 0 1, 338.0854768500198, 191.42857142857144 
L 344.0854768500198, 191.42857142857144 
A 0 0 0 0 1, 344.0854768500198, 191.42857142857144 
L 344.0854768500198, 350 
A 0 0 0 0 1, 344.0854768500198, 350 
 z" style="fill:#d73027;stroke:#d73027;width:6px;padding:8px;stroke-width:0" role="presentation" shape-rendering="auto"></path><path d="M 420.25643055005935, 350 
A 0 0 0 0 1, 420.25643055005935, 350 
L 420.25643055005935, 143.40659340659337 
A 0 0 0 0 1, 420.25643055005935, 143.40659340659337 
L 426.25643055005935, 143.40659340659337 
A 0 0 0 0 1, 426.25643055005935, 143.40659340659337 
L 426.25643055005935, 350 
A 0 0 0 0 1, 426.25643055005935, 350 
 z" style="fill:#d73027;stroke:#d73027;width:6px;padding:8px;stroke-width:0" role="presentation" shape-rendering="auto"></path><path d="M 502.4273842500989, 350 
A 0 0 0 0 1, 502.4273842500989, 350 
L 502.4273842500989, 121.42857142857147 
A 0 0 0 0 1, 502.4273842500989, 121.42857142857147 
L 508.4273842500989, 121.42857142857147 
A 0 0 0 0 1, 508.4273842500989, 121.42857142857147 
L 508.4273842500989, 350 
A 0 0 0 0 1, 508.4273842500989, 350 
 z" style="fill:#d73027;stroke:#d73027;width:6px;padding:8px;stroke-width:0" role="presentation" shape-rendering="auto"></path></g><g role="presentation"><path d="M 81.57261574990113, 350 
A 0 0 0 0 0, 81.57261574990113, 350 
L 81.57261574990113, 350 
A 0 0 0 0 0, 81.57261574990113, 350 
L 87.57261574990113, 350 
A 0 0 0 0 0, 87.57261574990113, 350 
L 87.57261574990113, 350 
A 0 0 0 0 0, 87.57261574990113, 350 
 z" style="fill:#4575b4;stroke:#4575b4;width:6px;padding:8px;stroke-width:0" role="presentation" shape-rendering="auto"></path><path d="M 163.7435694499407, 350 
A 0 0 0 0 1, 163.7435694499407, 350 
L 163.7435694499407, 157.14285714285717 
A 0 0 0 0 1, 163.7435694499407, 157.14285714285717 
L 169.7435694499407, 157.14285714285717 
A 0 0 0 0 1, 169.7435694499407, 157.14285714285717 
L 169.7435694499407, 350 
A 0 0 0 0 1, 169.7435694499407, 350 
 z" style="fill:#4575b4;stroke:#4575b4;width:6px;padding:8px;stroke-width:0" role="presentation" shape-rendering="auto"></path><path d="M 245.91452314998025, 350 
A 0 0 0 0 1, 245.91452314998025, 350 
L 245.91452314998025, 178.57142857142853 
A 0 0 0 0 1, 245.91452314998025, 178.57142857142853 
L 251.91452314998025, 178.57142857142853 
A 0 0 0 0 1, 251.91452314998025, 178.57142857142853 
L 251.91452314998025, 350 
A 0 0 0 0 1, 251.91452314998025, 350 
 z" style="fill:#4575b4;stroke:#4575b4;width:6px;padding:8px;stroke-width:0" role="presentation" shape-rendering="auto"></path><path d="M 328.0854768500198, 350 
A 0 0 0 0 1, 328.0854768500198, 350 
L 328.0854768500198, 192.85714285714295 
A 0 0 0 0 1, 328.0854768500198, 192.85714285714295 
L 334.0854768500198, 192.85714285714295 
A 0 0 0 0 1, 334.0854768500198, 192.85714285714295 
L 334.0854768500198, 350 
A 0 0 0 0 1, 334.0854768500198, 350 
 z" style="fill:#4575b4;stroke:#4575b4;width:6px;padding:8px;stroke-width:0" role="presentation" shape-rendering="auto"></path><path d="M 410.25643055005935, 350 
A 0 0 0 0 1, 410.25643055005935, 350 
L 410.25643055005935, 203.06122448979596 
A 0 0 0 0 1, 410.25643055005935, 203.06122448979596 
L 416.25643055005935, 203.06122448979596 
A 0 0 0 0 1, 416.25643055005935, 203.06122448979596 
L 416.25643055005935, 350 
A 0 0 0 0 1, 416.25643055005935, 350 
 z" style="fill:#4575b4;stroke:#4575b4;width:6px;padding:8px;stroke-width:0" role="presentation" shape-rendering="auto"></path><path d="M 492.4273842500989, 350 
A 0 0 0 0 1, 492.4273842500989, 350 
L 492.4273842500989, 157.14285714285717 
A 0 0 0 0 1, 492.4273842500989, 157.14285714285717 
L 498.4273842500989, 157.14285714285717 
A 0 0 0 0 1, 498.4273842500989, 157.14285714285717 
L 498.4273842500989, 350 
A 0 0 0 0 1, 498.4273842500989, 350 
 z" style="fill:#4575b4;stroke:#4575b4;width:6px;padding:8px;stroke-width:0" role="presentation" shape-rendering="auto"></path></g><g role="presentation"><path d="M 71.57261574990102, 350 
A 0 0 0 0 0, 71.57261574990102, 350 
L 71.57261574990102, 350 
A 0 0 0 0 0, 71.57261574990102, 350 
L 77.57261574990102, 350 
A 0 0 0 0 0, 77.57261574990102, 350 
L 77.57261574990102, 350 
A 0 0 0 0 0, 77.57261574990102, 350 
 z" style="fill:#fc8d59;stroke:#fc8d59;width:6px;padding:8px;stroke-width:0" role="presentation" shape-rendering="auto"></path><path d="M 153.74356944994062, 350 
A 0 0 0 0 1, 153.74356944994062, 350 
L 153.74356944994062, 157.14285714285717 
A 0 0 0 0 1, 153.74356944994062, 157.14285714285717 
L 159.74356944994062, 157.14285714285717 
A 0 0 0 0 1, 159.74356944994062, 157.14285714285717 
L 159.74356944994062, 350 
A 0 0 0 0 1, 159.74356944994062, 350 
 z" style="fill:#fc8d59;stroke:#fc8d59;width:6px;padding:8px;stroke-width:0" role="presentation" shape-rendering="auto"></path><path d="M 235.9145231499802, 350 
A 0 0 0 0 1, 235.9145231499802, 350 
L 235.9145231499802, 157.14285714285717 
A 0 0 0 0 1, 235.9145231499802, 157.14285714285717 
L 241.9145231499802, 157.14285714285717 
A 0 0 0 0 1, 241.9145231499802, 157.14285714285717 
L 241.9145231499802, 350 
A 0 0 0 0 1, 241.9145231499802, 350 
 z" style="fill:#fc8d59;stroke:#fc8d59;width:6px;padding:8px;stroke-width:0" role="presentation" shape-rendering="auto"></path><path d="M 318.0854768500198, 350 
A 0 0 0 0 1, 318.0854768500198, 350 
L 318.0854768500198, 161.42857142857142 
A 0 0 0 0 1, 318.0854768500198, 161.42857142857142 
L 324.0854768500198, 161.42857142857142 
A 0 0 0 0 1, 324.0854768500198, 161.42857142857142 
L 324.0854768500198, 350 
A 0 0 0 0 1, 324.0854768500198, 350 
 z" style="fill:#fc8d59;stroke:#fc8d59;width:6px;padding:8px;stroke-width:0" role="presentation" shape-rendering="auto"></path><path d="M 400.25643055005935, 350 
A 0 0 0 0 1, 400.25643055005935, 350 
L 400.25643055005935, 139.86175115207377 
A 0 0 0 0 1, 400.25643055005935, 139.86175115207377 
L 406.25643055005935, 139.86175115207377 
A 0 0 0 0 1, 406.25643055005935, 139.86175115207377 
L 406.25643055005935, 350 
A 0 0 0 0 1, 406.25643055005935, 350 
 z" style="fill:#fc8d59;stroke:#fc8d59;width:6px;padding:8px;stroke-width:0" role="presentation" shape-rendering="auto"></path><path d="M 482.4273842500989, 350 
A 0 0 0 0 1, 482.4273842500989, 350 
L 482.4273842500989, 178.57142857142853 
A 0 0 0 0 1, 482.4273842500989, 178.57142857142853 
L 488.4273842500989, 178.57142857142853 
A 0 0 0 0 1, 488.4273842500989, 178.57142857142853 
L 488.4273842500989, 350 
A 0 0 0 0 1, 488.4273842500989, 350 
 z" style="fill:#fc8d59;stroke:#fc8d59;width:6px;padding:8px;stroke-width:0" role="presentation" shape-rendering="auto"></path></g><g role="presentation"><path d="M 61.57261574990105, 350 
A 0 0 0 0 0, 61.57261574990105, 350 
L 61.57261574990105, 350 
A 0 0 0 0 0, 61.57261574990105, 350 
L 67.57261574990105, 350 
A 0 0 0 0 0, 67.57261574990105, 350 
L 67.57261574990105, 350 
A 0 0 0 0 0, 67.57261574990105, 350 
 z" style="fill:#91bfdb;stroke:#91bfdb;width:6px;padding:8px;stroke-width:0" role="presentation" shape-rendering="auto"></path><path d="M 143.74356944994062, 350 
A 0 0 0 0 1, 143.74356944994062, 350 
L 143.74356944994062, 237.5 
A 0 0 0 0 1, 143.74356944994062, 237.5 
L 149.74356944994062, 237.5 
A 0 0 0 0 1, 149.74356944994062, 237.5 
L 149.74356944994062, 350 
A 0 0 0 0 1, 149.74356944994062, 350 
 z" style="fill:#91bfdb;stroke:#91bfdb;width:6px;padding:8px;stroke-width:0" role="presentation" shape-rendering="auto"></path><path d="M 225.9145231499802, 350 
A 0 0 0 0 1, 225.9145231499802, 350 
L 225.9145231499802, 239.07563025210084 
A 0 0 0 0 1, 225.9145231499802, 239.07563025210084 
L 231.9145231499802, 239.07563025210084 
A 0 0 0 0 1, 231.9145231499802, 239.07563025210084 
L 231.9145231499802, 350 
A 0 0 0 0 1, 231.9145231499802, 350 
 z" style="fill:#91bfdb;stroke:#91bfdb;width:6px;padding:8px;stroke-width:0" role="presentation" shape-rendering="auto"></path><path d="M 308.08547685001986, 350 
A 0 0 0 0 1, 308.08547685001986, 350 
L 308.08547685001986, 240.47619047619045 
A 0 0 0 0 1, 308.08547685001986, 240.47619047619045 
L 314.08547685001986, 240.47619047619045 
A 0 0 0 0 1, 314.08547685001986, 240.47619047619045 
L 314.08547685001986, 350 
A 0 0 0 0 1, 314.08547685001986, 350 
 z" style="fill:#91bfdb;stroke:#91bfdb;width:6px;padding:8px;stroke-width:0" role="presentation" shape-rendering="auto"></path><path d="M 390.2564305500594, 350 
A 0 0 0 0 1, 390.2564305500594, 350 
L 390.2564305500594, 241.72932330827072 
A 0 0 0 0 1, 390.2564305500594, 241.72932330827072 
L 396.2564305500594, 241.72932330827072 
A 0 0 0 0 1, 396.2564305500594, 241.72932330827072 
L 396.2564305500594, 350 
A 0 0 0 0 1, 396.2564305500594, 350 
 z" style="fill:#91bfdb;stroke:#91bfdb;width:6px;padding:8px;stroke-width:0" role="presentation" shape-rendering="auto"></path><path d="M 472.42738425009895, 350 
A 0 0 0 0 1, 472.42738425009895, 350 
L 472.42738425009895, 178.57142857142853 
A 0 0 0 0 1, 472.42738425009895, 178.57142857142853 
L 478.42738425009895, 178.57142857142853 
A 0 0 0 0 1, 478.42738425009895, 178.57142857142853 
L 478.42738425009895, 350 
A 0 0 0 0 1, 478.42738425009895, 350 
 z" style="fill:#91bfdb;stroke:#91bfdb;width:6px;padding:8px;stroke-width:0" role="presentation" shape-rendering="auto"></path></g></g></g></svg>